<svg id="Layer_1" data-name="Layer 1" xmlns="http://www.w3.org/2000/svg" viewBox="0 0 1920 1080"><defs><style>.cls-1{fill:#b4d1ff;}.cls-1,.cls-3{opacity:0.5;}.cls-2{fill:#00ea7a;opacity:0.6;}.cls-3{fill:#fdd4e7;}</style></defs><path class="cls-1" d="M282.54-353.09c-247-4.34-423.38,101.4-473.73,127.27-173,88.9-452.56,232.51-467.69,477.93C-676.63,540-322.61,824.68-125.62,773.33c120.53-31.43,108.82-183,232-226C351.62,461.87,596.1,994,847.51,942c262.34-54.22,471.42-731.85,221.34-1036.81C985.53-196.39,859.09-246.6,767.65-283.49,570.39-363.08,401.77-351,282.54-353.09Z"/><path class="cls-2" d="M-109.78.51C-260.32,215.05-335.06,591-123.38,812,119.18,1065.2,533.2,954.42,747.26,789.37c317.14-244.52,428-767,203.52-1002.56C712-463.76,134-346.93-109.78.51Z"/><path class="cls-3" d="M382.24-93.27c32.37,99.71,112.9,293,296.67,385.13C1087.78,497,1726.15,60.86,1704.08-224.49,1687.33-441,1284.65-605,986.75-617.45c-127.31-5.32-368.66-19-511.51,155.55C363.05-324.79,375.63-150.48,382.24-93.27Z"/></svg>