<svg width="15" height="21" viewBox="0 0 26 37" fill="none" xmlns="http://www.w3.org/2000/svg">
<mask id="path-1-inside-1_24_245" fill="white">
<path d="M13 0C20.1717 0 26 5.83114 26 13.0433C26 21.4795 16.3213 33.3919 13.6665 36.5008C13.3105 36.9177 12.6895 36.9177 12.3335 36.5008C9.67867 33.3919 0 21.4795 0 13.0433C0 5.83114 5.82833 0 13 0Z"/>
</mask>
<path d="M13 0C20.1717 0 26 5.83114 26 13.0433C26 21.4795 16.3213 33.3919 13.6665 36.5008C13.3105 36.9177 12.6895 36.9177 12.3335 36.5008C9.67867 33.3919 0 21.4795 0 13.0433C0 5.83114 5.82833 0 13 0Z" fill="white"/>
<path d="M12.3335 36.5008L11.573 37.1502L12.3335 36.5008ZM13 1C19.6171 1 25 6.38111 25 13.0433H27C27 5.28116 20.7263 -1 13 -1V1ZM25 13.0433C25 16.9559 22.7237 21.8324 19.9798 26.2414C17.2659 30.6022 14.2184 34.3146 12.906 35.8514L14.427 37.1502C15.7694 35.5781 18.8887 31.7798 21.6778 27.2982C24.437 22.8647 27 17.5669 27 13.0433H25ZM13.094 35.8514C11.7816 34.3146 8.73411 30.6022 6.0202 26.2414C3.27629 21.8324 1 16.9559 1 13.0433H-1C-1 17.5669 1.56304 22.8647 4.32218 27.2982C7.11131 31.7798 10.2306 35.5781 11.573 37.1502L13.094 35.8514ZM1 13.0433C1 6.38111 6.38292 1 13 1V-1C5.27374 -1 -1 5.28116 -1 13.0433H1ZM12.906 35.8514C12.9207 35.8343 12.9557 35.8134 13 35.8134C13.0443 35.8134 13.0793 35.8343 13.094 35.8514L11.573 37.1502C12.3282 38.0345 13.6718 38.0345 14.427 37.1502L12.906 35.8514Z" fill="#85868C" mask="url(#path-1-inside-1_24_245)"/>
</svg>
