<svg width="15" height="21" viewBox="0 0 26 37" fill="none" xmlns="http://www.w3.org/2000/svg">
<path fill-rule="evenodd" clip-rule="evenodd" d="M26 13.0433C26 5.83114 20.1717 0 13 0C5.82833 0 0 5.83114 0 13.0433C0 21.4795 9.67867 33.3919 12.3335 36.5008C12.6895 36.9177 13.3105 36.9177 13.6665 36.5008C16.3213 33.3919 26 21.4795 26 13.0433ZM13 18.2C15.8719 18.2 18.2 15.8719 18.2 13C18.2 10.1281 15.8719 7.8 13 7.8C10.1281 7.8 7.80002 10.1281 7.80002 13C7.80002 15.8719 10.1281 18.2 13 18.2Z" fill="#16161A"/>
</svg>
