<svg width="14" height="20" viewBox="0 0 14 20" fill="none" xmlns="http://www.w3.org/2000/svg">
<path fill-rule="evenodd" clip-rule="evenodd" d="M14 7.02333C14 3.13984 10.8617 0 7 0C3.13833 0 0 3.13984 0 7.02333C0 11.5349 5.14072 17.8928 6.61133 19.6193C6.81868 19.8628 7.18132 19.8628 7.38867 19.6193C8.85928 17.8928 14 11.5349 14 7.02333ZM7 9.80013C8.5464 9.80013 9.8 8.54652 9.8 7.00013C9.8 5.45373 8.5464 4.20013 7 4.20013C5.45361 4.20013 4.2 5.45373 4.2 7.00013C4.2 8.54652 5.45361 9.80013 7 9.80013Z" fill="#16161A"/>
</svg>
