<svg width="15" height="21" viewBox="0 0 15 21" fill="none" xmlns="http://www.w3.org/2000/svg">
<mask id="path-1-inside-1_69_166" fill="white">
<path d="M7.06264 0.909668C10.9589 0.909668 14.1253 4.07761 14.1253 7.99585C14.1253 12.2992 9.48955 18.2676 7.72954 20.3785C7.37849 20.7995 6.74679 20.7995 6.39574 20.3785C4.63573 18.2676 0 12.2992 0 7.99585C0 4.07761 3.16642 0.909668 7.06264 0.909668Z"/>
</mask>
<path d="M7.06264 0.909668C10.9589 0.909668 14.1253 4.07761 14.1253 7.99585C14.1253 12.2992 9.48955 18.2676 7.72954 20.3785C7.37849 20.7995 6.74679 20.7995 6.39574 20.3785C4.63573 18.2676 0 12.2992 0 7.99585C0 4.07761 3.16642 0.909668 7.06264 0.909668Z" fill="white"/>
<path d="M7.72954 20.3785L8.49759 21.0189L7.72954 20.3785ZM6.39574 20.3785L5.62768 21.0189L6.39574 20.3785ZM7.06264 1.90967C10.4043 1.90967 13.1253 4.62758 13.1253 7.99585H15.1253C15.1253 3.52763 11.5134 -0.090332 7.06264 -0.090332V1.90967ZM13.1253 7.99585C13.1253 9.85489 12.0975 12.2199 10.7303 14.4941C9.38877 16.7258 7.82585 18.7014 6.96148 19.7381L8.49759 21.0189C9.39324 19.9446 11.0282 17.8806 12.4445 15.5245C13.8352 13.211 15.1253 10.4401 15.1253 7.99585H13.1253ZM7.16379 19.7381C6.29943 18.7014 4.7365 16.7258 3.39493 14.4941C2.02782 12.2199 1 9.85489 1 7.99585H-1C-1 10.4401 0.290045 13.211 1.6808 15.5245C3.09709 17.8806 4.73204 19.9446 5.62768 21.0189L7.16379 19.7381ZM1 7.99585C1 4.62758 3.72101 1.90967 7.06264 1.90967V-0.090332C2.61182 -0.090332 -1 3.52763 -1 7.99585H1ZM6.96148 19.7381C6.98123 19.7144 7.01998 19.6942 7.06264 19.6942C7.1053 19.6942 7.14404 19.7144 7.16379 19.7381L5.62768 21.0189C6.37852 21.9194 7.74676 21.9194 8.49759 21.0189L6.96148 19.7381Z" fill="#85868C" mask="url(#path-1-inside-1_69_166)"/>
</svg>
